<svg id="Layer_1" data-name="Layer 1" xmlns="http://www.w3.org/2000/svg" viewBox="0 0 739.09 739.09"><defs><style>.cls-1{fill:#ff7b80;}.cls-2{fill:#fff;}</style></defs><title>behance</title><path class="cls-1" d="M769.42,399.88C769.42,604,604,769.42,399.88,769.42S30.33,604,30.33,399.88,195.79,30.33,399.88,30.33,769.42,195.79,769.42,399.88Zm0,0" transform="translate(-30.33 -30.33)"/><path class="cls-2" d="M532.37,335.61C425.61,335.61,425.48,442,425.48,442.5c0,0-7.3,106.44,106.89,106.44,0,0,95.2,5.43,95.2-74.08H578.69s1.6,29.94-44.72,29.94c0,0-48.88,3.25-48.88-48.38H629.21s15.86-120.81-96.84-120.81Zm-47.83,83.57s5.95-42.81,48.89-42.81c43.1,0,42.39,42.81,42.39,42.81ZM362.37,391.81s42.4-3.09,42.4-52.95-34.67-74.11-78.71-74.11H181.25V543.11H326.06s88.45,2.74,88.45-82.22c0,0,3.8-69.08-52.14-69.08Zm-117.3-77.62h81s19.65,0,19.65,29-11.52,33.2-24.67,33.2h-76ZM322,493.68H245.07v-74.5h81s29.39-.25,29.27,38.34c0,32.52-21.81,35.89-33.32,36.16ZM472.47,281.16v34.25H587.34V281.16Zm0,0" transform="translate(-30.33 -30.33)"/></svg>