<svg id="Layer_1" data-name="Layer 1" xmlns="http://www.w3.org/2000/svg" viewBox="0 0 739.47 739.47"><defs><style>.cls-1{fill:#ff7b80;}.cls-2{fill:#fff;}</style></defs><title>dribbble</title><path class="cls-1" d="M769.61,399.88c0,204.19-165.54,369.73-369.73,369.73S30.15,604.07,30.15,399.88,195.69,30.15,399.88,30.15,769.61,195.69,769.61,399.88Zm0,0" transform="translate(-30.15 -30.15)"/><path class="cls-2" d="M399.88,165.08c-129.66,0-235.12,105.33-235.12,234.8S270.22,634.67,399.88,634.67,635,529.35,635,399.88,529.5,165.08,399.88,165.08Zm154.69,110.8a197.15,197.15,0,0,1,43.86,121A489.37,489.37,0,0,0,506.56,388a372.9,372.9,0,0,0-45.28,2.64q-1.93-4.73-3.95-9.49c-4-9.37-8.31-18.67-12.75-27.84,69.51-28.64,103-68.38,110-77.4Zm-154.69-74a197.87,197.87,0,0,1,130.85,49.27c-5.54,7.53-35.57,45.08-102.59,70.41A1070.06,1070.06,0,0,0,355.08,207a198.1,198.1,0,0,1,44.8-5.11Zm-85.32,19.24a1289.32,1289.32,0,0,1,72.67,113.15c-85.4,22.43-161.23,23.91-179.54,23.91h-1.93a199,199,0,0,1,108.8-137.06ZM201.26,400.2c0-1.64,0-3.28.06-4.89h5.21c24.65,0,110.22-2,198.4-28.19,5.35,10.46,10.43,21.08,15.16,31.7-2.23.64-4.41,1.28-6.6,2-99.28,32.06-153.83,117-162.22,130.82a197.27,197.27,0,0,1-50-131.43ZM399.88,598.53a197.82,197.82,0,0,1-121.16-41.28c5.69-11.14,46.85-85.28,155.65-123.16a.87.87,0,0,0,.23-.06c27.26,71,38.82,130.62,42,149.09a197.27,197.27,0,0,1-76.72,15.41Zm112.5-34.95c-2.67-15.28-13.38-71.15-38.07-139.27a259.77,259.77,0,0,1,40-3c41.51,0,74,9.11,81.51,11.4a198.68,198.68,0,0,1-83.42,130.9Zm0,0" transform="translate(-30.15 -30.15)"/></svg>