<svg id="Layer_1" data-name="Layer 1" xmlns="http://www.w3.org/2000/svg" viewBox="0 0 722.28 722.21"><defs><style>.cls-1{fill:#ff7b80;}.cls-2{fill:#fff;}</style></defs><title>flickr</title><path class="cls-1" d="M399.88,761C599.29,761,761,599.32,761,399.88S599.29,38.77,399.88,38.77,38.74,200.46,38.74,399.88,200.44,761,399.88,761" transform="translate(-38.74 -38.77)"/><path class="cls-2" d="M581.09,399.88A79.84,79.84,0,1,1,501.28,320a79.81,79.81,0,0,1,79.81,79.85Zm0,0" transform="translate(-38.74 -38.77)"/><path class="cls-2" d="M378.31,399.88A79.83,79.83,0,1,1,298.44,320a79.82,79.82,0,0,1,79.87,79.85Zm0,0" transform="translate(-38.74 -38.77)"/></svg>