<svg id="Layer_1" data-name="Layer 1" xmlns="http://www.w3.org/2000/svg" viewBox="0 0 719.98 719.97"><defs><style>.cls-1{fill:#fff;}.cls-2{fill:#ff7b80;}</style></defs><title>instagram</title><circle class="cls-1" cx="359.99" cy="360.96" r="306.25"/><path class="cls-2" d="M507.21,231.48H292.62A62.17,62.17,0,0,0,230.5,293.6V508.16a62.2,62.2,0,0,0,62.12,62.16H507.21a62.22,62.22,0,0,0,62.13-62.16V293.6a62.19,62.19,0,0,0-62.13-62.12ZM399.9,512.43A111.55,111.55,0,1,1,511.45,400.88,111.7,111.7,0,0,1,399.9,512.43Zm115.16-200A26.4,26.4,0,1,1,541.46,286a26.4,26.4,0,0,1-26.4,26.39Zm0,0" transform="translate(-39.91 -39.92)"/><path class="cls-2" d="M399.9,336.49a64.41,64.41,0,1,0,64.43,64.39,64.46,64.46,0,0,0-64.43-64.39Zm0,0" transform="translate(-39.91 -39.92)"/><path class="cls-2" d="M399.9,39.92c-198.81,0-360,161.17-360,360s161.18,360,360,360,360-161.18,360-360-161.18-360-360-360ZM616.46,508.16A109.36,109.36,0,0,1,507.21,617.43H292.62A109.38,109.38,0,0,1,183.35,508.16V293.6A109.42,109.42,0,0,1,292.62,184.32H507.21A109.4,109.4,0,0,1,616.46,293.6Zm0,0" transform="translate(-39.91 -39.92)"/></svg>