<svg id="Layer_1" data-name="Layer 1" xmlns="http://www.w3.org/2000/svg" viewBox="0 0 715.76 715.76"><defs><style>.cls-1{fill:#ff7b80;}.cls-2{fill:#fff;}</style></defs><title>vimeo</title><path class="cls-1" d="M399.53,42.65c197.66,0,357.88,160.24,357.88,357.88S597.19,758.41,399.53,758.41,41.65,598.19,41.65,400.53,201.87,42.65,399.53,42.65Zm0,0" transform="translate(-41.65 -42.65)"/><path class="cls-2" d="M198.22,333.43c33.46-26.72,81-85.36,118.14-85.36s46.17,43.78,51.23,83.47S387.27,458.1,406.87,458.1s64.35-76.83,61.8-106.51S433.78,326.35,416,334.88C432.34,275.52,470.14,244,518.48,244s60,34.15,60,76.09c0,63.84-129.4,259.42-207.59,259.42-48.34,0-60.34-71.26-70.13-106.54s-29.11-127.67-51.65-133.6c-8.74-1.45-33.44,18.16-33.44,18.16Zm0,0" transform="translate(-41.65 -42.65)"/></svg>